<svg width="138" height="101" viewBox="0 0 138 101" fill="none" xmlns="http://www.w3.org/2000/svg">
<path fill-rule="evenodd" clip-rule="evenodd" d="M87.5001 37.5043V50.0043H100V37.5043H87.5001ZM37.5001 37.5043V50.0043H50.0001V37.5043H37.5001ZM37.5001 87.5043H62.5001V100.004H37.5001V87.5043ZM100 87.5043V100.004H75.0001V87.5043H100ZM100 12.5043V0.00428772H112.5V12.5043H100ZM37.5001 12.5043H50.0001V25.0043H87.5001V12.5043H100V25.0043H112.5V37.5043H125V50.0043H137.5V87.5043H125V62.5043H112.5V87.5043H100V75.0043H37.5001V87.5043H25.0001V62.5043H12.5001V87.5043H9.15527e-05V50.0043H12.5001V37.5043H25.0001V25.0043H37.5001V12.5043ZM25.0001 0.00428772H37.5001V12.5043H25.0001V0.00428772Z" fill="#191919"/>
</svg>
